<?xml version="1.0" encoding="UTF-8"?>
<!DOCTYPE svg PUBLIC "-//W3C//DTD SVG 1.1//EN" "http://www.w3.org/Graphics/SVG/1.1/DTD/svg11.dtd">
<svg xmlns="http://www.w3.org/2000/svg" style="background: transparent; background-color: transparent; color-scheme: light dark;" xmlns:xlink="http://www.w3.org/1999/xlink" version="1.1" width="600px" height="734px" viewBox="-0.5 -0.5 600 734"><defs><linearGradient x1="100%" y1="0%" x2="0%" y2="0%" id="drawio-svg-DvZ0Cw2Z32mQ80JI_AKH-gradient-light-dark_0a10f0_0a10f0_-1-light-dark_e206f6_e206f6_-1-e-0"><stop offset="0%" stop-color="#E206F6" stop-opacity="1" style="stop-color: light-dark(rgb(226, 6, 246), rgb(226, 6, 246)); stop-opacity: 1;"/><stop offset="100%" stop-color="#0A10F0" stop-opacity="1" style="stop-color: light-dark(rgb(10, 16, 240), rgb(10, 16, 240)); stop-opacity: 1;"/></linearGradient></defs><g><g><path d="M 40 471.04 L 40 221.04 Q 40 171.04 83.31 196.03 L 516.69 446.05 Q 560 471.04 516.69 496.03 L 83.31 746.05 Q 40 771.04 40 721.04 Z" fill="#afc9ff" stroke="none" transform="rotate(270,300,471.04)" pointer-events="all" style="fill: light-dark(rgb(175, 201, 255), rgb(44, 67, 113));"/></g><g><path d="M 193.48 104.52 L 193.48 32.02 Q 193.48 -17.98 236.83 6.94 L 363.17 79.6 Q 406.52 104.52 363.17 129.44 L 236.83 202.1 Q 193.48 227.02 193.48 177.02 Z" fill="#afc9ff" stroke="none" transform="rotate(90,300,104.52)" pointer-events="all" style="fill: light-dark(rgb(175, 201, 255), rgb(44, 67, 113));"/></g><g><path d="M 232.61 11.02 L 367.39 88.52 L 232.61 166.02 Z" fill="#ffffff" stroke="none" transform="rotate(90,300,88.52)" pointer-events="all" style="fill: light-dark(rgb(255, 255, 255), rgb(255, 255, 255));"/></g><g><rect x="110" y="215.04" width="380" height="120" fill="#afc9ff" stroke="none" transform="rotate(90,300,275.04)" pointer-events="all" style="fill: light-dark(rgb(175, 201, 255), rgb(44, 67, 113));"/></g><g><rect x="98" y="267.04" width="360" height="36" rx="5.4" ry="5.4" fill="#dbe6ff" stroke="none" transform="rotate(90,278,285.04)" pointer-events="all" style="fill: light-dark(rgb(219, 230, 255), rgb(61, 94, 158));"/></g><g><path d="M 80 228.04 L 520 481.04 L 80 734.04 Z" fill="#afc9ff" stroke="none" transform="rotate(270,300,481.04)" pointer-events="all" style="fill: light-dark(rgb(175, 201, 255), rgb(44, 67, 113));"/></g><g><path d="M 100 261.04 L 500 491.04 L 100 721.04 Z" fill="url(#drawio-svg-DvZ0Cw2Z32mQ80JI_AKH-gradient-light-dark_0a10f0_0a10f0_-1-light-dark_e206f6_e206f6_-1-e-0)" stroke="none" transform="rotate(270,300,491.04)" pointer-events="all" style="fill: url(&quot;#drawio-svg-DvZ0Cw2Z32mQ80JI_AKH-gradient-light-dark_0a10f0_0a10f0_-1-light-dark_e206f6_e206f6_-1-e-0&quot;);"/></g></g></svg>