<?xml version="1.0" encoding="UTF-8"?>
<!DOCTYPE svg PUBLIC "-//W3C//DTD SVG 1.1//EN" "http://www.w3.org/Graphics/SVG/1.1/DTD/svg11.dtd">
<svg xmlns="http://www.w3.org/2000/svg" xmlns:xlink="http://www.w3.org/1999/xlink" version="1.1" width="901px" height="1100px" viewBox="-0.5 -0.5 901 1100"><defs/><g><g data-cell-id="0"><g data-cell-id="1"><g data-cell-id="YSEVFLiHHC1DsgBtn_8J-13"><g><path d="M 60 709.56 L 60 334.56 Q 60 259.56 124.96 297.04 L 775.04 672.08 Q 840 709.56 775.04 747.04 L 124.96 1122.08 Q 60 1159.56 60 1084.56 Z" fill="#76cfd5" stroke="none" transform="rotate(270,450,709.56)" pointer-events="all"/></g></g><g data-cell-id="YSEVFLiHHC1DsgBtn_8J-14"><g><path d="M 290.22 159.78 L 290.22 51.03 Q 290.22 -23.97 355.24 13.42 L 544.76 122.39 Q 609.78 159.78 544.76 197.17 L 355.24 306.14 Q 290.22 343.53 290.22 268.53 Z" fill="#76cfd5" stroke="none" transform="rotate(90,450,159.78)" pointer-events="all"/></g></g><g data-cell-id="YSEVFLiHHC1DsgBtn_8J-11"><g><path d="M 348.92 19.53 L 551.09 135.78 L 348.92 252.03 Z" fill="rgb(255, 255, 255)" stroke="none" transform="rotate(90,450,135.78)" pointer-events="all"/></g></g><g data-cell-id="YSEVFLiHHC1DsgBtn_8J-15"><g><rect x="165" y="304.56" width="570" height="180" fill="#76cfd5" stroke="none" transform="rotate(90,450,394.56)" pointer-events="all"/></g></g><g data-cell-id="YSEVFLiHHC1DsgBtn_8J-68"><g><rect x="147" y="376.56" width="540" height="54" rx="8.1" ry="8.1" fill="#8df8ff" stroke="none" transform="rotate(90,417,403.56)" pointer-events="all"/></g></g><g data-cell-id="YSEVFLiHHC1DsgBtn_8J-70"><g><path d="M 120 345.06 L 780 724.56 L 120 1104.06 Z" fill="#76cfd5" stroke="none" transform="rotate(270,450,724.56)" pointer-events="all"/></g></g><g data-cell-id="YSEVFLiHHC1DsgBtn_8J-12"><g><path d="M 150 394.56 L 750 739.56 L 150 1084.56 Z" fill="#000000" stroke="none" transform="rotate(270,450,739.56)" pointer-events="all"/></g></g></g></g></g></svg>